<svg xmlns="http://www.w3.org/2000/svg" width="33.333" height="33.333" viewBox="0 0 33.333 33.333"><g transform="translate(0)"><circle cx="16.667" cy="16.667" r="16.667" transform="translate(0)" fill="#fff"/><g transform="translate(5.353 5.353)"><path d="M190.566,7.042A.566.566,0,0,1,190,6.476V.566a.566.566,0,0,1,1.131,0v5.91A.566.566,0,0,1,190.566,7.042Zm0,0" transform="translate(-179.252)" fill="#0635c9"/><path d="M190.566,282.565A.566.566,0,0,1,190,282v-5.91a.566.566,0,1,1,1.131,0V282A.566.566,0,0,1,190.566,282.565Zm0,0" transform="translate(-179.252 -259.937)" fill="#0635c9"/><path d="M282,191.131h-5.91a.566.566,0,0,1,0-1.131H282a.566.566,0,0,1,0,1.131Zm0,0" transform="translate(-259.937 -179.252)" fill="#0635c9"/><path d="M6.476,191.131H.566a.566.566,0,0,1,0-1.131h5.91a.566.566,0,0,1,0,1.131Zm0,0" transform="translate(0 -179.252)" fill="#0635c9"/><path d="M69.928,77.728a7.8,7.8,0,1,1,7.8-7.8A7.808,7.808,0,0,1,69.928,77.728Zm0-14.467A6.668,6.668,0,1,0,76.6,69.928,6.668,6.668,0,0,0,69.928,63.26Zm0,0" transform="translate(-58.614 -58.614)" fill="#1ae5be"/><path d="M155.913,158.556a2.644,2.644,0,1,1,2.644-2.644A2.644,2.644,0,0,1,155.913,158.556Zm0-4.156a1.512,1.512,0,1,0,1.512,1.512A1.512,1.512,0,0,0,155.913,154.4Zm0,0" transform="translate(-144.599 -144.599)" fill="#0635c9"/></g></g></svg>