<svg xmlns="http://www.w3.org/2000/svg" width="23.877" height="16.774" viewBox="0 0 23.877 16.774"><path d="M12.388,21.263V10.453A2.388,2.388,0,0,0,10,12.841v10.81a2.388,2.388,0,0,0,2.388,2.388H30.3a2.388,2.388,0,0,0,2.388-2.388H14.775A2.388,2.388,0,0,1,12.388,21.263Zm0,0" transform="translate(-9.403 -9.829)" fill="#d4e1f4"/><g transform="translate(0 3.175)"><path d="M51.214,156.538a2.57,2.57,0,1,1,2.57-2.57A2.57,2.57,0,0,1,51.214,156.538Zm0-3.946a1.376,1.376,0,1,0,1.376,1.376A1.376,1.376,0,0,0,51.214,152.592Zm0,0" transform="translate(-45.741 -145.536)" fill="#6e78f7"/><path d="M93.9,156.538a2.57,2.57,0,1,1,2.57-2.57A2.57,2.57,0,0,1,93.9,156.538Zm0-3.946a1.376,1.376,0,1,0,1.376,1.376A1.376,1.376,0,0,0,93.9,152.592Zm0,0" transform="translate(-85.877 -145.536)" fill="#6e78f7"/><path d="M23.28,54.385H.6a.6.6,0,0,1,0-1.194H23.28a.6.6,0,1,1,0,1.194Zm0,0" transform="translate(0 -53.191)" fill="#6e78f7"/></g><path d="M23.877,2.985A2.985,2.985,0,0,0,20.893,0H2.985A2.985,2.985,0,0,0,0,2.985v10.8a2.985,2.985,0,0,0,2.985,2.985H20.893a2.985,2.985,0,0,0,2.985-2.985ZM2.985,1.194H20.893a1.816,1.816,0,0,1,1.791,1.818V6.447H1.194V3.012A1.816,1.816,0,0,1,2.985,1.194ZM20.893,15.64H2.985a1.816,1.816,0,0,1-1.791-1.818V7.641h21.49v6.181A1.816,1.816,0,0,1,20.893,15.64Zm0,0" fill="#6e78f7"/></svg>