<svg xmlns="http://www.w3.org/2000/svg" width="21.894" height="22.99" viewBox="0 0 21.894 22.99"><path d="M13.913,41.058H26.528A1.956,1.956,0,0,0,24.572,39.1H11.957A1.956,1.956,0,0,0,10,41.058V54.309a1.956,1.956,0,0,0,1.957,1.957V43.015A1.956,1.956,0,0,1,13.913,41.058Zm0,0" transform="translate(-9.511 -37.189)" fill="#d4e1f4"/><path d="M239.069,265.883a4.894,4.894,0,0,1,6.824-4.5,4.892,4.892,0,1,0-5.332,8.012,4.881,4.881,0,0,1-1.492-3.517Zm0,0" transform="translate(-225.979 -247.296)" fill="#d4e1f4"/><g transform="translate(3.987)"><path d="M89.571,209.1H81.989a.489.489,0,0,0,0,.978h7.582a.489.489,0,0,0,0-.978Zm0,0" transform="translate(-81.5 -198.874)" fill="#6e78f7"/><path d="M86.529,274.1H81.989a.489.489,0,1,0,0,.978h4.539a.489.489,0,1,0,0-.978Zm0,0" transform="translate(-81.5 -260.694)" fill="#6e78f7"/><path d="M91.489,3.82a.491.491,0,0,0,.489-.489V.489a.489.489,0,1,0-.978,0V3.331A.491.491,0,0,0,91.489,3.82Zm0,0" transform="translate(-90.535)" fill="#6e78f7"/><path d="M247.489,0A.491.491,0,0,0,247,.489V3.331a.489.489,0,0,0,.978,0V.489A.491.491,0,0,0,247.489,0Zm0,0" transform="translate(-238.905)" fill="#6e78f7"/><path d="M282.02,321.448l-2.905,2.773-1.5-1.507a.488.488,0,0,0-.69.69l1.844,1.844a.481.481,0,0,0,.347.142.473.473,0,0,0,.337-.137l3.248-3.106a.487.487,0,0,0,.015-.69.5.5,0,0,0-.695-.01Zm0,0" transform="translate(-267.229 -305.595)" fill="#6e78f7"/></g><path d="M17.507,40V31.547A2.446,2.446,0,0,0,15.061,29.1H2.446A2.447,2.447,0,0,0,0,31.547V44.8a2.447,2.447,0,0,0,2.446,2.446H11.5A5.381,5.381,0,1,0,17.507,40ZM2.446,30.079H15.061a1.472,1.472,0,0,1,1.467,1.467V32.73H.978V31.547A1.468,1.468,0,0,1,2.446,30.079Zm0,16.186A1.472,1.472,0,0,1,.978,44.8V33.7h15.55v6.2h-.015a5.389,5.389,0,0,0-5.293,6.359Zm14.068,3.424a4.4,4.4,0,1,1,4.4-4.4A4.4,4.4,0,0,1,16.514,49.689Zm0,0" transform="translate(0 -27.678)" fill="#6e78f7"/></svg>