<svg xmlns="http://www.w3.org/2000/svg" width="20.333" height="24.484" viewBox="0 0 20.333 24.484"><g transform="translate(-0.532 2)"><path d="M64.559,27.451A1.448,1.448,0,0,1,63.11,26V10h-.2a1.449,1.449,0,0,0-1.449,1.449v16.2A1.448,1.448,0,0,0,62.913,29.1H74.978a1.448,1.448,0,0,0,1.448-1.448v-.2Zm0,0" transform="translate(-58.094 -9.451)" fill="#d4e1f4"/><path d="M12.793,74.769a1.449,1.449,0,0,1-1.449-1.449V57.059h-.2A1.449,1.449,0,0,0,9.7,58.507V74.965a1.449,1.449,0,0,0,1.449,1.449H23.471a1.448,1.448,0,0,0,1.448-1.449v-.2Zm0,0" transform="translate(-9.167 -53.93)" fill="#d4e1f4"/><g transform="translate(-2 -2)"><path d="M15.085.169,15.078.162l-.011-.01L15.039.126,15.028.117,15,.094,14.982.085l-.03-.018L14.927.055,14.9.043,14.862.028l-.009,0A.365.365,0,0,0,14.745,0H4.819A2.021,2.021,0,0,0,2.8,2v.581H1.98a1.988,1.988,0,0,0-1.98,2V21.035a1.985,1.985,0,0,0,1.973,2H14.3a1.988,1.988,0,0,0,1.983-1.992v-.86h.6a1.974,1.974,0,0,0,1.98-1.968V4.357a.54.54,0,0,0-.144-.379Zm.16,1.745L17.05,3.783H15.245Zm-.055,19.12a.89.89,0,0,1-.88.9H1.98a.887.887,0,0,1-.884-.89V4.577a.89.89,0,0,1,.876-.9H2.8V18.2A2.01,2.01,0,0,0,4.819,20.18H15.19Zm1.694-1.951H4.819a.912.912,0,0,1-.926-.887V2a.923.923,0,0,1,.926-.9h9.329V4.359a.519.519,0,0,0,.54.522h3.079V18.2a.876.876,0,0,1-.865.887h-.018Zm0,0" transform="translate(4 0)" fill="#6e78f7"/><path d="M238.422,213.965a.548.548,0,0,0-.776,0l-1,1a1.969,1.969,0,1,0,2.785,0Zm.229,3.014a.872.872,0,0,1-1.234-1.234l.617-.617.617.617A.872.872,0,0,1,238.651,216.979Zm0,0" transform="translate(-220.12 -200.08)" fill="#6e78f7"/><path d="M102.013,81.1h4.559a.548.548,0,0,0,0-1.1h-4.559a.548.548,0,1,0,0,1.1Zm0,0" transform="translate(-95.901 -75.613)" fill="#6e78f7"/><path d="M106.024,130.548a.548.548,0,0,0-.548-.548h-3.462a.548.548,0,0,0,0,1.1h3.462A.548.548,0,0,0,106.024,130.548Zm0,0" transform="translate(-95.901 -122.871)" fill="#6e78f7"/></g><path d="M89.9,139.437a2.024,2.024,0,0,1-1.431-3.455l5.235-5.235a.43.43,0,0,0,.1-.153l.476-1.238a.548.548,0,0,1,.9-.191l2.969,2.969a.548.548,0,0,1-.191.9l-1.238.476a.439.439,0,0,0-.153.1l-5.235,5.235A2.01,2.01,0,0,1,89.9,139.437Zm5.1-8.9-.173.45a1.526,1.526,0,0,1-.347.534l-5.235,5.235a.927.927,0,0,0,1.311,1.311l5.235-5.235a1.525,1.525,0,0,1,.535-.347l.45-.173Zm0,0" transform="translate(-80.06 -124.931)" fill="#6e78f7"/></g></svg>