<svg xmlns="http://www.w3.org/2000/svg" width="21.434" height="21.808" viewBox="0 0 21.434 21.808"><path d="M13.233,115.453V105.265H11.9V102.62a1.9,1.9,0,0,1,1.9-1.9H30.428A1.892,1.892,0,0,0,28.593,99.3H11.9a1.9,1.9,0,0,0-1.9,1.9v2.645h1.337v10.188a1.9,1.9,0,0,0,1.9,1.9h.062a1.94,1.94,0,0,1-.062-.474Zm0,0" transform="translate(-9.526 -94.593)" fill="#d4e1f4"/><path d="M105.42,0a2.215,2.215,0,0,0-1.588.659L100.489,4l-2.47-2.47a2.249,2.249,0,0,0-3.181,3.181l.308.308a.464.464,0,0,0,.337.137.485.485,0,0,0,.336-.137.472.472,0,0,0,0-.669l-.308-.308A1.3,1.3,0,0,1,97.351,2.2l2.655,2.655a.445.445,0,0,0,.119.19.466.466,0,0,0,.337.137.459.459,0,0,0,.327-.133.414.414,0,0,0,.047-.043.188.188,0,0,0,.038-.047L104.5,1.327a1.3,1.3,0,1,1,1.839,1.839l0,0-1.166,1.195a.473.473,0,0,0,.678.659l1.162-1.195A2.24,2.24,0,0,0,105.42,0Zm0,0" transform="translate(-89.718 0.001)" fill="#6e78f7"/><path d="M130.843,223.1a4.741,4.741,0,1,0,4.741,4.741A4.741,4.741,0,0,0,130.843,223.1Zm0,8.534a3.793,3.793,0,1,1,3.793-3.793A3.793,3.793,0,0,1,130.843,231.636Zm0,0" transform="translate(-120.124 -212.525)" fill="#6e78f7"/><g transform="translate(0 4.234)"><path d="M19.068,89.3H2.37A2.371,2.371,0,0,0,0,91.671v2.645a.475.475,0,0,0,.474.474h.863V104.5a2.371,2.371,0,0,0,2.37,2.37H17.726a2.371,2.371,0,0,0,2.37-2.37V94.791h.863a.475.475,0,0,0,.474-.474V91.671a2.364,2.364,0,0,0-2.366-2.37ZM9.06,93.843V90.249h3.271v3.594ZM.948,91.671A1.426,1.426,0,0,1,2.37,90.249H8.112v3.594H.948Zm18.2,12.833a1.426,1.426,0,0,1-1.422,1.422H3.707A1.426,1.426,0,0,1,2.285,104.5V94.791H19.148V104.5ZM20.49,93.843H13.279V90.249h5.789a1.426,1.426,0,0,1,1.422,1.422Zm0,0" transform="translate(0 -89.301)" fill="#6e78f7"/><path d="M172.121,290.845a.465.465,0,0,0,.336.138.459.459,0,0,0,.327-.133l2.835-2.707a.473.473,0,0,0-.654-.683l-2.5,2.389-1.28-1.28a.473.473,0,1,0-.668.669Zm0,0" transform="translate(-162.303 -277.94)" fill="#6e78f7"/></g></svg>