<svg xmlns="http://www.w3.org/2000/svg" width="21.998" height="22.798" viewBox="0 0 21.998 22.798"><g transform="translate(0.479 0.479)"><path d="M413.06,357.2H412.1a.846.846,0,0,1,.843.848v1.126a.844.844,0,0,1-.843.843h.958a.844.844,0,0,0,.843-.843v-1.126A.846.846,0,0,0,413.06,357.2Zm0,0" transform="translate(-392.854 -340.562)" fill="#d4e1f4"/><path d="M250.754,359.173v-1.126a.846.846,0,0,1,.843-.848h-.953a.843.843,0,0,0-.843.848v1.126a.845.845,0,0,0,.843.843h.958a.846.846,0,0,1-.848-.843Zm0,0" transform="translate(-238.329 -340.562)" fill="#d4e1f4"/><path d="M76.392,15.536a4.586,4.586,0,0,1,4.585-4.585c.149,0,.292.01.436.019a4.587,4.587,0,1,0-3.268,8.174,4.587,4.587,0,0,1-1.754-3.608Zm0,0" transform="translate(-70.949 -9.992)" fill="#d4e1f4"/><path d="M20.426,246.156a7.754,7.754,0,0,1,1.61.168,7.559,7.559,0,0,0-4.006-1.126,7.679,7.679,0,0,0-7.628,7.963l2.444,0a7.626,7.626,0,0,1,7.58-7Zm0,0" transform="translate(-10.403 -233.927)" fill="#d4e1f4"/><path d="M345.425,440.064v.124a.568.568,0,0,1-.57.565h-.886a.566.566,0,0,1-.565-.565v-.124a.566.566,0,0,1,.565-.565h.886a.562.562,0,0,1,.57.565Zm0,0" transform="translate(-327.447 -418.919)" fill="#d4e1f4"/></g><path d="M69.065,10.129A5.065,5.065,0,1,0,64,5.065,5.065,5.065,0,0,0,69.065,10.129Zm0-9.171a4.106,4.106,0,1,1-4.106,4.106A4.106,4.106,0,0,1,69.065.958Zm0,0" transform="translate(-60.953)" fill="#6e78f7"/><path d="M8.523,235.2H8.5a7.953,7.953,0,0,0-5.74,2.41A8.528,8.528,0,0,0,.4,243.642a.494.494,0,0,0,.139.34.474.474,0,0,0,.34.139l11.691-.024a.479.479,0,0,0,0-.958l-11.2.024a7.517,7.517,0,0,1,2.08-4.882,6.987,6.987,0,0,1,5.055-2.118h.014a7.031,7.031,0,0,1,4.906,1.96.478.478,0,0,0,.661-.69A7.957,7.957,0,0,0,8.523,235.2Zm0,0" transform="translate(-0.401 -223.929)" fill="#6e78f7"/><path d="M337.7,407a.481.481,0,0,0-.479.479v.69a.544.544,0,0,1-.541.541h-.393a1.05,1.05,0,0,0-.958-.628h-.886a1.047,1.047,0,0,0-1.044,1.044v.125a1.047,1.047,0,0,0,1.044,1.045h.886a1.037,1.037,0,0,0,.958-.632h.393a1.5,1.5,0,0,0,1.5-1.5v-.69A.474.474,0,0,0,337.7,407Zm-2.281,2.247a.087.087,0,0,1-.091.086h-.886a.086.086,0,0,1-.086-.086v-.124a.085.085,0,0,1,.025-.061.086.086,0,0,1,.061-.025h.886a.09.09,0,0,1,.091.086Zm0,0" transform="translate(-317.446 -387.498)" fill="#6e78f7"/><path d="M248.878,243.994v-1.188a4,4,0,0,0-8.007,0v1.188a1.328,1.328,0,0,0-1.27,1.322v1.126a1.326,1.326,0,0,0,1.327,1.323h.987a.481.481,0,0,0,.479-.479v-2.817a.481.481,0,0,0-.479-.479h-.086V242.8a3.043,3.043,0,0,1,6.085,0v1.188h-.086a.481.481,0,0,0-.479.479v2.817a.481.481,0,0,0,.479.479h.987a1.325,1.325,0,0,0,1.322-1.323v-1.126A1.315,1.315,0,0,0,248.878,243.994Zm-7.441,2.817h-.5a.368.368,0,0,1-.369-.364v-1.126a.365.365,0,0,1,.369-.364h.508v1.854Zm7.753-.364a.364.364,0,0,1-.364.364h-.508v-1.859h.508a.364.364,0,0,1,.364.364Zm0,0" transform="translate(-228.14 -227.358)" fill="#6e78f7"/></svg>