<svg xmlns="http://www.w3.org/2000/svg" width="23.764" height="24.377" viewBox="0 0 23.764 24.377"><g transform="translate(0.543 0.543)"><path d="M265.673,246.341a1.153,1.153,0,0,1,1.152-1.152h4.032A1.15,1.15,0,0,1,272,244.1h-6.266a1.153,1.153,0,0,0-1.152,1.152v9.271a.148.148,0,0,0,.239.114l.848-.766Zm0,0" transform="translate(-250.766 -231.379)" fill="#d4e1f4"/><path d="M76.6,16.28a5.2,5.2,0,0,1,5.2-5.2c.169,0,.332.011.495.022a5.2,5.2,0,1,0-3.706,9.271A5.2,5.2,0,0,1,76.6,16.28Zm0,0" transform="translate(-70.427 -9.992)" fill="#d4e1f4"/><path d="M21.657,246.284a8.8,8.8,0,0,1,1.826.19A8.573,8.573,0,0,0,18.94,245.2a8.71,8.71,0,0,0-8.651,9.032l2.772-.005a8.649,8.649,0,0,1,8.6-7.94Zm0,0" transform="translate(-10.289 -232.415)" fill="#d4e1f4"/></g><path d="M69.631,0a5.744,5.744,0,1,0,5.744,5.744A5.744,5.744,0,0,0,69.631,0Zm0,10.4a4.657,4.657,0,1,1,4.657-4.657A4.657,4.657,0,0,1,69.631,10.4Zm0,0" transform="translate(-60.431)" fill="#6e78f7"/><path d="M9.483,236.286H9.5a7.971,7.971,0,0,1,4.864,1.619l.657-.864A9.036,9.036,0,0,0,9.5,235.2H9.483a9.02,9.02,0,0,0-6.51,2.734,9.654,9.654,0,0,0-2.684,6.842.561.561,0,0,0,.158.386.538.538,0,0,0,.386.158l13.966-.027V244.2l-13.407.027a8.526,8.526,0,0,1,2.359-5.538,7.952,7.952,0,0,1,5.733-2.407Zm0,0" transform="translate(-0.288 -222.418)" fill="#6e78f7"/><path d="M263.324,234.1h-7.043a1.7,1.7,0,0,0-1.7,1.7v9.271a.676.676,0,0,0,.391.62.684.684,0,0,0,.728-.082c.011-.006.016-.016.027-.022l2.652-2.386,2.4,2.369a.286.286,0,0,0,.044.038.693.693,0,0,0,.424.147.674.674,0,0,0,.3-.071.685.685,0,0,0,.391-.619v-6.429h.82a1.769,1.769,0,0,0,1.766-1.766v-1.076a2.649,2.649,0,0,0-.136-1.022A1.074,1.074,0,0,0,263.324,234.1Zm-2.467,1.7v8.32l-2.076-2.049a.541.541,0,0,0-.745-.016l-2.364,2.125V235.8a.608.608,0,0,1,.609-.609h4.69a1.6,1.6,0,0,0-.114.609Zm2.587,1.071a.679.679,0,0,1-.679.679h-.82v-1.755a.607.607,0,0,1,.609-.609h.777a.24.24,0,0,1,.071.006,2.428,2.428,0,0,1,.049.6v1.076Zm0,0" transform="translate(-240.766 -221.38)" fill="#6e78f7"/></svg>