<svg xmlns="http://www.w3.org/2000/svg" width="21.88" height="21.628" viewBox="0 0 21.88 21.628"><path d="M.546,185.661a.547.547,0,0,1-.391-.929L10.97,173.667a.547.547,0,0,1,.794.753l-.012.012L.937,185.5a.545.545,0,0,1-.391.165Zm0,0" transform="translate(0.001 -164.033)" fill="#6e78f7"/><g transform="translate(4.72)"><path d="M135.613,65.529a.547.547,0,0,1-.535-.431l-.751-3.466-3.381-.472a.547.547,0,0,1-.211-1.008l2.947-1.812-.616-3.505a.547.547,0,0,1,.907-.5l2.557,2.333,2.995-1.675a.547.547,0,0,1,.772.688l-1.361,3.273,2.482,2.458a.547.547,0,0,1-.438.933l-3.391-.328-1.48,3.194A.547.547,0,0,1,135.613,65.529ZM132.6,60.286l2.253.315a.548.548,0,0,1,.459.426l.486,2.245.957-2.067a.548.548,0,0,1,.549-.315l2.247.218L137.9,59.473a.547.547,0,0,1-.12-.6l.9-2.155-1.96,1.1a.547.547,0,0,1-.636-.073l-1.663-1.518.4,2.291a.547.547,0,0,1-.252.56Zm0,0" transform="translate(-128.058 -51.256)" fill="#6e78f7"/><path d="M274.07,233.145a.546.546,0,0,1-.459-.249l-1.263-1.939a.547.547,0,0,1,.917-.6l1.263,1.939a.547.547,0,0,1-.458.846Zm0,0" transform="translate(-262.087 -217.552)" fill="#6e78f7"/><path d="M226.172,3.867a.547.547,0,0,1-.547-.547V1.047a.547.547,0,1,1,1.094,0V3.32A.547.547,0,0,1,226.172,3.867Zm0,0" transform="translate(-218.003 -0.5)" fill="#6e78f7"/><path d="M326.371,105.855a.547.547,0,0,1-.139-1.076L329.2,104a.547.547,0,1,1,.278,1.058l-2.963.778A.548.548,0,0,1,326.371,105.855Zm0,0" transform="translate(-312.721 -98.322)" fill="#6e78f7"/><path d="M89.032,93.5a.55.55,0,0,1-.094-.008l-2.194-.378a.547.547,0,1,1,.186-1.078l2.194.378a.547.547,0,0,1-.092,1.086Zm0,0" transform="translate(-86.291 -87.022)" fill="#6e78f7"/></g></svg>